<svg width="32" height="33" viewBox="0 0 32 33" fill="none" xmlns="http://www.w3.org/2000/svg">
<path d="M2.74068 26.6867L10.858 18.4867L15.2447 22.6867L20.606 18L23.5927 20.912M29.3327 8C29.3327 7.46957 29.122 6.96086 28.7469 6.58579C28.3718 6.21071 27.8631 6 27.3327 6H4.66602C4.13558 6 3.62687 6.21071 3.2518 6.58579C2.87673 6.96086 2.66602 7.46957 2.66602 8V14H29.3327V8Z" stroke="#09122A" stroke-width="2" stroke-linecap="round" stroke-linejoin="round"/>
<path d="M29.3327 12.6667V25.3333C29.3327 25.8638 29.122 26.3725 28.7469 26.7475C28.3718 27.1226 27.8631 27.3333 27.3327 27.3333H7.99935M12.7407 10H24.7407M7.40602 10H8.73935M2.66602 12.6667V18.6667" stroke="#09122A" stroke-width="2" stroke-linecap="round" stroke-linejoin="round"/>
</svg>
