<svg width="32" height="33" viewBox="0 0 32 33" fill="none" xmlns="http://www.w3.org/2000/svg">
<path d="M28 6.6665V19.6665C28 20.1969 27.7893 20.7056 27.4142 21.0807C27.0391 21.4558 26.5304 21.6665 26 21.6665H12.4137L13.7075 22.959C13.8004 23.0519 13.8741 23.1622 13.9244 23.2836C13.9747 23.405 14.0006 23.5351 14.0006 23.6665C14.0006 23.7979 13.9747 23.928 13.9244 24.0494C13.8741 24.1708 13.8004 24.2811 13.7075 24.374C13.6146 24.4669 13.5043 24.5406 13.3829 24.5909C13.2615 24.6412 13.1314 24.6671 13 24.6671C12.8686 24.6671 12.7385 24.6412 12.6171 24.5909C12.4957 24.5406 12.3854 24.4669 12.2925 24.374L9.2925 21.374C9.19952 21.2811 9.12576 21.1708 9.07544 21.0494C9.02512 20.928 8.99921 20.7979 8.99921 20.6665C8.99921 20.5351 9.02512 20.405 9.07544 20.2836C9.12576 20.1622 9.19952 20.0519 9.2925 19.959L12.2925 16.959C12.4801 16.7714 12.7346 16.6659 13 16.6659C13.2654 16.6659 13.5199 16.7714 13.7075 16.959C13.8951 17.1466 14.0006 17.4011 14.0006 17.6665C14.0006 17.9319 13.8951 18.1864 13.7075 18.374L12.4137 19.6665H26V6.6665H12V7.6665C12 7.93172 11.8946 8.18607 11.7071 8.37361C11.5196 8.56115 11.2652 8.6665 11 8.6665C10.7348 8.6665 10.4804 8.56115 10.2929 8.37361C10.1054 8.18607 10 7.93172 10 7.6665V6.6665C10 6.13607 10.2107 5.62736 10.5858 5.25229C10.9609 4.87722 11.4696 4.6665 12 4.6665H26C26.5304 4.6665 27.0391 4.87722 27.4142 5.25229C27.7893 5.62736 28 6.13607 28 6.6665ZM21 24.6665C20.7348 24.6665 20.4804 24.7719 20.2929 24.9594C20.1054 25.1469 20 25.4013 20 25.6665V26.6665H6V13.6665H19.5863L18.2925 14.959C18.1049 15.1466 17.9994 15.4011 17.9994 15.6665C17.9994 15.9319 18.1049 16.1864 18.2925 16.374C18.4801 16.5616 18.7346 16.6671 19 16.6671C19.2654 16.6671 19.5199 16.5616 19.7075 16.374L22.7075 13.374C22.8005 13.2811 22.8742 13.1708 22.9246 13.0494C22.9749 12.928 23.0008 12.7979 23.0008 12.6665C23.0008 12.5351 22.9749 12.405 22.9246 12.2836C22.8742 12.1622 22.8005 12.0519 22.7075 11.959L19.7075 8.959C19.5199 8.77136 19.2654 8.66595 19 8.66595C18.7346 8.66595 18.4801 8.77136 18.2925 8.959C18.1049 9.14664 17.9994 9.40114 17.9994 9.6665C17.9994 9.93187 18.1049 10.1864 18.2925 10.374L19.5863 11.6665H6C5.46957 11.6665 4.96086 11.8772 4.58579 12.2523C4.21071 12.6274 4 13.1361 4 13.6665V26.6665C4 27.1969 4.21071 27.7056 4.58579 28.0807C4.96086 28.4558 5.46957 28.6665 6 28.6665H20C20.5304 28.6665 21.0391 28.4558 21.4142 28.0807C21.7893 27.7056 22 27.1969 22 26.6665V25.6665C22 25.4013 21.8946 25.1469 21.7071 24.9594C21.5196 24.7719 21.2652 24.6665 21 24.6665Z" fill="#09122A"/>
</svg>
