<svg width="24" height="24" viewBox="0 0 24 24" fill="none" xmlns="http://www.w3.org/2000/svg">
<path d="M12.5427 15.9304L20.5077 7.57094C20.6407 7.43145 20.7148 7.24614 20.7148 7.05344C20.7148 6.86073 20.6407 6.67542 20.5077 6.53594L20.4987 6.52694C20.4342 6.45908 20.3567 6.40505 20.2707 6.36813C20.1847 6.33121 20.092 6.31217 19.9984 6.31217C19.9049 6.31217 19.8122 6.33121 19.7262 6.36813C19.6402 6.40505 19.5627 6.45908 19.4982 6.52694L11.9982 14.3989L4.5012 6.52694C4.43674 6.45908 4.35915 6.40505 4.27315 6.36813C4.18715 6.33121 4.09454 6.31217 4.00095 6.31217C3.90736 6.31217 3.81475 6.33121 3.72875 6.36813C3.64275 6.40505 3.56516 6.45908 3.5007 6.52694L3.4917 6.53594C3.35873 6.67542 3.28456 6.86073 3.28456 7.05344C3.28456 7.24614 3.35873 7.43145 3.4917 7.57094L11.4567 15.9304C11.5267 16.004 11.611 16.0625 11.7043 16.1025C11.7977 16.1425 11.8982 16.1631 11.9997 16.1631C12.1012 16.1631 12.2017 16.1425 12.2951 16.1025C12.3884 16.0625 12.4727 16.004 12.5427 15.9304Z" fill="#09122A"/>
</svg>
