<svg width="32" height="32" viewBox="0 0 32 32" fill="none" xmlns="http://www.w3.org/2000/svg">
<path fill-rule="evenodd" clip-rule="evenodd" d="M24 18C25.1046 18 26 18.8954 26 20V24C26 25.1046 25.1046 26 24 26C22.8954 26 22 25.1046 22 24V20C22 18.8954 22.8954 18 24 18Z" fill="#09122A"/>
<path fill-rule="evenodd" clip-rule="evenodd" d="M16 6C17.1046 6 18 6.89543 18 8V24C18 25.1046 17.1046 26 16 26C14.8954 26 14 25.1046 14 24V8C14 6.89543 14.8954 6 16 6Z" fill="#09122A"/>
<path fill-rule="evenodd" clip-rule="evenodd" d="M8 14C9.10457 14 10 14.8954 10 16V24C10 25.1046 9.10457 26 8 26C6.89543 26 6 25.1046 6 24V16C6 14.8954 6.89543 14 8 14Z" fill="#09122A"/>
</svg>
