<svg width="26" height="29" viewBox="0 0 26 29" fill="none" xmlns="http://www.w3.org/2000/svg">
<path d="M1 11.6667C1 6.63867 1 4.124 2.56267 2.56267C4.12533 1.00133 6.63867 1 11.6667 1H14.3333C19.3613 1 21.876 1 23.4373 2.56267C24.9987 4.12533 25 6.63867 25 11.6667V17C25 22.028 25 24.5427 23.4373 26.104C21.8747 27.6653 19.3613 27.6667 14.3333 27.6667H11.6667C6.63867 27.6667 4.124 27.6667 2.56267 26.104C1.00133 24.5413 1 22.028 1 17V11.6667Z" stroke="#09122A" stroke-width="1.5"/>
<path d="M7.66602 11.6665H18.3327M7.66602 16.9998H14.3327" stroke="#09122A" stroke-width="1.5" stroke-linecap="round"/>
</svg>
