<svg width="24" height="24" viewBox="0 0 24 24" fill="none" xmlns="http://www.w3.org/2000/svg">
<path d="M8.07054 12.5437L16.43 20.5087C16.5695 20.6416 16.7548 20.7158 16.9475 20.7158C17.1402 20.7158 17.3256 20.6416 17.465 20.5087L17.474 20.4997C17.5419 20.4352 17.5959 20.3576 17.6328 20.2716C17.6698 20.1856 17.6888 20.093 17.6888 19.9994C17.6888 19.9058 17.6698 19.8132 17.6328 19.7272C17.5959 19.6412 17.5419 19.5636 17.474 19.4992L9.60204 11.9992L17.474 4.50218C17.5419 4.43772 17.5959 4.36013 17.6328 4.27413C17.6698 4.18813 17.6888 4.09552 17.6888 4.00193C17.6888 3.90834 17.6698 3.81573 17.6328 3.72973C17.5959 3.64373 17.5419 3.56614 17.474 3.50168L17.465 3.49268C17.3256 3.35971 17.1402 3.28553 16.9475 3.28553C16.7548 3.28553 16.5695 3.35971 16.43 3.49268L8.07054 11.4577C7.99702 11.5277 7.93849 11.612 7.8985 11.7053C7.85851 11.7986 7.83789 11.8991 7.83789 12.0007C7.83789 12.1022 7.85851 12.2027 7.8985 12.296C7.93849 12.3894 7.99702 12.4736 8.07054 12.5437Z" fill="#09122A"/>
</svg>
