<svg width="32" height="32" viewBox="0 0 32 32" fill="none" xmlns="http://www.w3.org/2000/svg">
<path d="M9.70711 10.2929C9.34662 9.93241 8.77939 9.90468 8.3871 10.2097L8.29289 10.2929L3.29289 15.2929C2.93241 15.6534 2.90468 16.2206 3.2097 16.6129L3.29289 16.7071L8.29289 21.7071C8.68342 22.0976 9.31658 22.0976 9.70711 21.7071C10.0676 21.3466 10.0953 20.7794 9.7903 20.3871L9.70711 20.2929L5.415 16L9.70711 11.7071C10.0676 11.3466 10.0953 10.7794 9.7903 10.3871L9.70711 10.2929Z" fill="#EF4444"/>
<path d="M18 17C18.5523 17 19 16.5523 19 16C19 15.4872 18.614 15.0645 18.1166 15.0067L18 15L6 15C5.44772 15 5 15.4477 5 16C5 16.5128 5.38604 16.9355 5.88338 16.9933L6 17H18Z" fill="#EF4444"/>
<path d="M16 4C14.4023 4 13.0963 5.24892 13.0051 6.82373L13 7V9C13 9.55228 13.4477 10 14 10C14.5128 10 14.9355 9.61396 14.9933 9.11662L15 9V7C15 6.48716 15.386 6.06449 15.8834 6.00673L16 6H26C26.5128 6 26.9355 6.38604 26.9933 6.88338L27 7V25C27 25.5128 26.614 25.9355 26.1166 25.9933L26 26H16C15.4872 26 15.0645 25.614 15.0067 25.1166L15 25V23C15 22.4477 14.5523 22 14 22C13.4872 22 13.0645 22.386 13.0067 22.8834L13 23V25C13 26.5977 14.2489 27.9037 15.8237 27.9949L16 28H26C27.5977 28 28.9037 26.7511 28.9949 25.1763L29 25V7C29 5.40232 27.7511 4.09634 26.1763 4.00509L26 4H16Z" fill="#EF4444"/>
</svg>
