<svg width="24" height="24" viewBox="0 0 24 24" fill="none" xmlns="http://www.w3.org/2000/svg">
<path d="M15.9295 11.4563L7.56996 3.49132C7.43048 3.35836 7.24516 3.28418 7.05246 3.28418C6.85975 3.28418 6.67444 3.35836 6.53496 3.49132L6.52596 3.50032C6.45811 3.56478 6.40408 3.64237 6.36716 3.72837C6.33024 3.81437 6.3112 3.90698 6.3112 4.00057C6.3112 4.09416 6.33024 4.18677 6.36716 4.27277C6.40408 4.35877 6.45811 4.43636 6.52596 4.50082L14.398 12.0008L6.52596 19.4978C6.45811 19.5623 6.40408 19.6399 6.36716 19.7259C6.33023 19.8119 6.3112 19.9045 6.3112 19.9981C6.3112 20.0917 6.33023 20.1843 6.36716 20.2703C6.40408 20.3563 6.45811 20.4339 6.52596 20.4983L6.53496 20.5073C6.67444 20.6403 6.85975 20.7145 7.05246 20.7145C7.24516 20.7145 7.43048 20.6403 7.56996 20.5073L15.9295 12.5423C16.003 12.4723 16.0615 12.388 16.1015 12.2947C16.1415 12.2014 16.1621 12.1009 16.1621 11.9993C16.1621 11.8978 16.1415 11.7973 16.1015 11.704C16.0615 11.6106 16.003 11.5264 15.9295 11.4563Z" fill="#09122A"/>
</svg>
