<svg width="32" height="33" viewBox="0 0 32 33" fill="none" xmlns="http://www.w3.org/2000/svg">
<path fill-rule="evenodd" clip-rule="evenodd" d="M14.6616 3.67176L14.8405 3.6665H17.1599C18.7202 3.6665 20.02 4.86249 20.1496 6.4172L20.2472 7.5865L20.3507 7.63391C20.8019 7.84884 21.2361 8.09734 21.6497 8.37706L21.7462 8.4445L22.8015 7.94847C24.1564 7.30986 25.7641 7.77061 26.5808 9.00397L26.6787 9.16214L27.8384 11.1709C28.6185 12.5221 28.2327 14.2457 26.9511 15.1352L26.0142 15.7845L26.0263 15.9067C26.0358 16.0326 26.0429 16.159 26.0477 16.2856L26.0548 16.6665C26.0548 16.921 26.0453 17.1744 26.0263 17.4264L26.0142 17.5475L26.9509 18.1976C28.1814 19.0517 28.5862 20.6744 27.9264 21.9983L27.8384 22.1621L26.6787 24.1709C25.8985 25.5221 24.2129 26.0498 22.8016 25.3846L21.7462 24.8875L21.65 24.9558C21.2365 25.2354 20.8025 25.4838 20.3515 25.6987L20.2482 25.7455L20.1496 26.9156C20.025 28.4107 18.8185 29.574 17.3388 29.6612L17.1599 29.6665H14.8405C13.2802 29.6665 11.9804 28.4705 11.8508 26.9159L11.7482 25.6905L11.5617 25.6025C11.1893 25.4148 10.829 25.2041 10.4831 24.9716L10.3192 24.8565L9.19887 25.3845C7.84398 26.0231 6.23628 25.5624 5.41962 24.329L5.32174 24.1709L4.162 22.1621C3.38187 20.8109 3.76773 19.0873 5.04917 18.1978L6.0882 17.4755L6.08045 17.3874C6.07192 17.2679 6.06551 17.148 6.06124 17.0278L6.05482 16.6665C6.05482 16.4249 6.0634 16.1843 6.08049 15.945L6.0882 15.8555L5.0495 15.1354C3.819 14.2813 3.41417 12.6587 4.07397 11.3347L4.162 11.1709L5.32174 9.16214C6.10187 7.81091 7.78753 7.28325 9.19836 7.94823L10.3192 8.4755L10.4831 8.36142C10.829 8.12892 11.1893 7.91817 11.5617 7.73055L11.7482 7.6415L11.8508 6.41737C11.9754 4.92229 13.1819 3.75903 14.6616 3.67176ZM17.1599 5.6665H14.8405C14.3204 5.6665 13.8871 6.06517 13.8439 6.58367L13.641 9.01174L13.0693 9.24191C12.3458 9.53312 11.6693 9.92934 11.0605 10.4165L10.5738 10.806L8.34617 9.75759C7.87572 9.53585 7.31383 9.71173 7.05379 10.1621L5.89405 12.1709C5.63401 12.6213 5.76263 13.1958 6.18982 13.4923L8.22476 14.9045L8.13678 15.5161C8.08234 15.8946 8.05482 16.2787 8.05482 16.6665C8.05482 17.054 8.0823 17.4378 8.13665 17.816L8.22451 18.4272L6.18989 19.8406C5.76263 20.1372 5.63401 20.7117 5.89405 21.1621L7.05379 23.1709C7.31383 23.6213 7.87572 23.7972 8.34668 23.5752L10.5738 22.527L11.0605 22.9165C11.6693 23.4037 12.3458 23.7999 13.0693 24.0911L13.641 24.3213L13.8439 26.7495C13.8871 27.2678 14.3204 27.6665 14.8405 27.6665H17.1599C17.68 27.6665 18.1133 27.2678 18.1565 26.7488L18.3577 24.3561L18.9409 24.1304C19.6875 23.8415 20.3859 23.4413 21.0136 22.9447L21.4997 22.5602L23.6542 23.5754C24.1247 23.7972 24.6866 23.6213 24.9466 23.1709L26.1063 21.1621C26.3664 20.7117 26.2378 20.1372 25.8103 19.8405L23.8705 18.4933L23.9639 17.8774C24.0243 17.4794 24.0548 17.0751 24.0548 16.6665C24.0548 16.258 24.0243 15.8536 23.9639 15.4556L23.8705 14.8397L25.8105 13.4924C26.2378 13.1958 26.3664 12.6213 26.1063 12.1709L24.9466 10.1621C24.6866 9.71173 24.1247 9.53585 23.6541 9.75764L21.4997 10.7728L21.0136 10.3883C20.3857 9.89155 19.687 9.49124 18.94 9.20229L18.3563 8.9765L18.1565 6.58346C18.1133 6.06517 17.68 5.6665 17.1599 5.6665Z" fill="#09122A"/>
<path fill-rule="evenodd" clip-rule="evenodd" d="M11.0547 16.6665C11.0547 13.9051 13.2933 11.6665 16.0547 11.6665C18.8161 11.6665 21.0547 13.9051 21.0547 16.6665C21.0547 19.4279 18.8161 21.6665 16.0547 21.6665C13.2933 21.6665 11.0547 19.4279 11.0547 16.6665ZM19.0547 16.6665C19.0547 15.0096 17.7115 13.6665 16.0547 13.6665C14.3978 13.6665 13.0547 15.0096 13.0547 16.6665C13.0547 18.3234 14.3978 19.6665 16.0547 19.6665C17.7115 19.6665 19.0547 18.3234 19.0547 16.6665Z" fill="#09122A"/>
</svg>
