<svg width="32" height="33" viewBox="0 0 32 33" fill="none" xmlns="http://www.w3.org/2000/svg">
<path fill-rule="evenodd" clip-rule="evenodd" d="M3 16.6665C3 9.4868 8.8203 3.6665 16 3.6665C23.1797 3.6665 29 9.4868 29 16.6665C29 23.8462 23.1797 29.6665 16 29.6665C8.8203 29.6665 3 23.8462 3 16.6665ZM27 16.6665C27 10.5914 22.0751 5.6665 16 5.6665C9.92487 5.6665 5 10.5914 5 16.6665C5 22.7416 9.92487 27.6665 16 27.6665C22.0751 27.6665 27 22.7416 27 16.6665Z" fill="#09122A"/>
<path d="M15 22.6665V20.6665H17V22.6665H15Z" fill="#09122A"/>
<path d="M16 18.6665C15.4872 18.6665 15.0645 18.2805 15.0067 17.7831L15 17.6665V16.6665C15 16.2361 15.2754 15.8539 15.6838 15.7178C17.3189 15.1728 18 14.4917 18 13.6665C18 13.1665 17.3333 12.6665 16 12.6665C14.7407 12.6665 14.0761 13.1125 14.0062 13.5833L14 13.6665C14 14.2188 13.5523 14.6665 13 14.6665C12.4477 14.6665 12 14.2188 12 13.6665C12 11.9165 13.6667 10.6665 16 10.6665C18.3333 10.6665 20 11.9165 20 13.6665C20 15.2352 19.0429 16.4246 17.2975 17.2299L17 17.3605V17.6665C17 18.1793 16.614 18.602 16.1166 18.6598L16 18.6665Z" fill="#09122A"/>
</svg>
